<svg width="327" height="52" viewBox="0 0 327 52" fill="none" xmlns="http://www.w3.org/2000/svg">
<rect y="0.490234" width="327" height="51" rx="25.5" fill="#5DB075"/>
<path d="M136.603 31.4902H134.353L138.45 19.8539H141.052L145.154 31.4902H142.904L139.796 22.2402H139.705L136.603 31.4902ZM136.677 26.9277H142.813V28.6209H136.677V26.9277ZM148.653 26.3766V31.4902H146.596V22.763H148.562V24.2459H148.664C148.865 23.7573 149.185 23.369 149.624 23.0811C150.067 22.7933 150.615 22.6493 151.266 22.6493C151.869 22.6493 152.393 22.7781 152.84 23.0357C153.291 23.2933 153.639 23.6664 153.886 24.155C154.136 24.6436 154.259 25.2364 154.255 25.9334V31.4902H152.198V26.2516C152.198 25.6683 152.047 25.2118 151.744 24.8823C151.444 24.5527 151.03 24.388 150.499 24.388C150.139 24.388 149.819 24.4675 149.539 24.6266C149.263 24.7819 149.045 25.0073 148.886 25.3027C148.73 25.5982 148.653 25.9561 148.653 26.3766ZM163.244 25.0698L161.369 25.2743C161.316 25.0849 161.223 24.9069 161.09 24.7402C160.961 24.5736 160.787 24.4391 160.567 24.3368C160.348 24.2346 160.079 24.1834 159.761 24.1834C159.333 24.1834 158.973 24.2762 158.681 24.4618C158.393 24.6474 158.251 24.888 158.255 25.1834C158.251 25.4372 158.344 25.6436 158.533 25.8027C158.727 25.9618 159.045 26.0925 159.488 26.1948L160.977 26.513C161.802 26.691 162.416 26.9732 162.817 27.3596C163.223 27.7459 163.427 28.2516 163.431 28.8766C163.427 29.4258 163.266 29.9107 162.948 30.3311C162.634 30.7478 162.196 31.0736 161.636 31.3084C161.075 31.5433 160.431 31.6607 159.704 31.6607C158.636 31.6607 157.776 31.4372 157.124 30.9902C156.473 30.5395 156.085 29.9126 155.96 29.1096L157.965 28.9164C158.056 29.3103 158.249 29.6077 158.545 29.8084C158.84 30.0092 159.225 30.1096 159.698 30.1096C160.187 30.1096 160.579 30.0092 160.874 29.8084C161.174 29.6077 161.323 29.3596 161.323 29.0641C161.323 28.8141 161.227 28.6077 161.033 28.4448C160.844 28.2819 160.549 28.1569 160.147 28.0698L158.658 27.7573C157.821 27.583 157.202 27.2895 156.8 26.8766C156.399 26.4599 156.2 25.9334 156.204 25.2971C156.2 24.7592 156.346 24.2933 156.641 23.8993C156.941 23.5016 157.355 23.1948 157.886 22.9789C158.42 22.7592 159.035 22.6493 159.732 22.6493C160.755 22.6493 161.56 22.8671 162.147 23.3027C162.738 23.7383 163.103 24.3274 163.244 25.0698ZM166.928 31.4902L164.462 22.763H166.559L168.093 28.8993H168.173L169.741 22.763H171.815L173.383 28.8652H173.468L174.979 22.763H177.082L174.61 31.4902H172.468L170.832 25.5925H170.712L169.076 31.4902H166.928ZM182.131 31.6607C181.256 31.6607 180.501 31.4789 179.864 31.1152C179.232 30.7478 178.745 30.2289 178.404 29.5584C178.063 28.8842 177.893 28.0906 177.893 27.1777C177.893 26.28 178.063 25.4921 178.404 24.8141C178.749 24.1323 179.23 23.602 179.847 23.2232C180.465 22.8406 181.19 22.6493 182.023 22.6493C182.561 22.6493 183.069 22.7364 183.546 22.9107C184.027 23.0811 184.451 23.3463 184.819 23.7061C185.19 24.066 185.482 24.5243 185.694 25.0811C185.906 25.6342 186.012 26.2933 186.012 27.0584V27.6891H178.859V26.3027H184.04C184.037 25.9088 183.951 25.5584 183.785 25.2516C183.618 24.941 183.385 24.6967 183.086 24.5186C182.79 24.3406 182.446 24.2516 182.052 24.2516C181.631 24.2516 181.262 24.3539 180.944 24.5584C180.626 24.7592 180.378 25.0243 180.2 25.3539C180.025 25.6796 179.936 26.0376 179.933 26.4277V27.638C179.933 28.1455 180.025 28.5811 180.211 28.9448C180.397 29.3046 180.656 29.5811 180.989 29.7743C181.323 29.9637 181.713 30.0584 182.16 30.0584C182.459 30.0584 182.73 30.0167 182.972 29.9334C183.215 29.8463 183.425 29.7194 183.603 29.5527C183.781 29.3861 183.915 29.1796 184.006 28.9334L185.927 29.1493C185.806 29.6569 185.575 30.1001 185.234 30.4789C184.897 30.8539 184.465 31.1455 183.938 31.3539C183.412 31.5584 182.809 31.6607 182.131 31.6607ZM187.752 31.4902V22.763H189.746V24.2175H189.837C189.996 23.7137 190.269 23.3255 190.656 23.0527C191.046 22.7762 191.491 22.638 191.991 22.638C192.104 22.638 192.231 22.6436 192.371 22.655C192.515 22.6626 192.635 22.6758 192.729 22.6948V24.5868C192.642 24.5565 192.504 24.53 192.315 24.5073C192.129 24.4808 191.949 24.4675 191.775 24.4675C191.4 24.4675 191.063 24.5489 190.763 24.7118C190.468 24.8709 190.235 25.0925 190.065 25.3766C189.894 25.6607 189.809 25.9883 189.809 26.3596V31.4902H187.752Z" fill="white"/>
</svg>
