<svg width="19" height="21" viewBox="0 0 19 21" fill="none" xmlns="http://www.w3.org/2000/svg">
<path d="M17.2451 2.62565L13.4374 2.63348L13.4361 2.00191C13.434 0.95546 12.5024 0.109086 11.3553 0.111446L8.58607 0.117144C7.43901 0.119504 6.5109 0.969705 6.51305 2.01615L6.51435 2.64773L2.70667 2.65556C1.75081 2.65753 0.977356 3.36606 0.97915 4.23807L0.981749 5.50122C0.982466 5.85005 1.29299 6.13216 1.67535 6.13138L18.2907 6.09719C18.6731 6.0964 18.9824 5.81302 18.9817 5.46419L18.9791 4.20103C18.9773 3.32902 18.201 2.62368 17.2451 2.62565ZM7.89766 2.0133C7.89695 1.66514 8.20704 1.38108 8.58867 1.3803L11.3579 1.3746C11.7395 1.37382 12.0508 1.6566 12.0515 2.00475L12.0528 2.63633L7.89896 2.64488L7.89766 2.0133Z" fill="#1C1919"/>
<path d="M2.23037 7.13078C2.10329 7.13082 2.00205 7.23086 2.00815 7.35039L2.6001 18.9613C2.65482 20.0359 3.5926 20.8772 4.73483 20.8767L15.5508 20.8726C16.6931 20.8722 17.6302 20.0303 17.6841 18.9556L18.2673 7.34423C18.2733 7.2247 18.172 7.12474 18.0449 7.12478L2.23037 7.13078ZM12.9872 8.80315C12.987 8.43265 13.3057 8.13245 13.6992 8.1323C14.0927 8.13215 14.4115 8.43211 14.4116 8.80261L14.4149 17.5202C14.4151 17.8906 14.0964 18.1909 13.7029 18.191C13.3094 18.1912 12.9906 17.8912 12.9905 17.5207L12.9872 8.80315ZM9.42607 8.8045C9.42593 8.434 9.74454 8.1338 10.138 8.13365C10.5315 8.1335 10.8504 8.43346 10.8505 8.80396L10.8538 17.5215C10.8539 17.892 10.5353 18.1922 10.1418 18.1924C9.74832 18.1925 9.42949 17.8925 9.42935 17.522L9.42607 8.8045ZM5.86495 8.80585C5.86481 8.43535 6.18342 8.13515 6.57692 8.135C6.97042 8.13485 7.28926 8.43481 7.2894 8.80531L7.29267 17.5229C7.29281 17.8933 6.97421 18.1936 6.5807 18.1937C6.1872 18.1938 5.86837 17.8939 5.86823 17.5234L5.86495 8.80585Z" fill="#1C1919"/>
</svg>
