 <svg
            width="60"
            height="31"
            viewBox="0 0 60 31"
            fill="none"
            xmlns="http://www.w3.org/2000/svg"
          >
            <g clip-path="url(#clip0_14_1541)">
              <rect width="120" height="40" rx="8" fill="#78A816" />
              <path
                d="M34.1346 9.70789H32.2308V9.21842C32.2308 8.40742 31.7658 7.75 31.1923 7.75L29.8077 7.75C29.2342 7.75 28.7692 8.40742 28.7692 9.21842V9.70789H26.8654C26.3875 9.70789 26 10.2558 26 10.9316V11.9105C26 12.1809 26.155 12.4 26.3462 12.4H34.6538C34.845 12.4 35 12.1809 35 11.9105V10.9316C35 10.2558 34.6125 9.70789 34.1346 9.70789ZM29.4615 9.21842C29.4615 8.9486 29.6169 8.72895 29.8077 8.72895H31.1923C31.3831 8.72895 31.5385 8.9486 31.5385 9.21842V9.70789H29.4615V9.21842Z"
                fill="white"
              />
              <path
                d="M26.623 13.1761C26.5595 13.1759 26.5087 13.2533 26.5117 13.3459L26.7957 22.3453C26.8219 23.1782 27.29 23.8317 27.8611 23.8331L33.2691 23.8472C33.8402 23.8487 34.3096 23.1977 34.3377 22.365L34.6412 13.3671C34.6444 13.2744 34.5938 13.1968 34.5303 13.1966L26.623 13.1761ZM31.9997 14.4893C32 14.2022 32.1596 13.97 32.3563 13.9705C32.5531 13.9711 32.7122 14.204 32.7119 14.4912L32.7046 21.2472C32.7043 21.5344 32.5446 21.7665 32.3479 21.766C32.1511 21.7655 31.992 21.5325 31.9923 21.2454L31.9997 14.4893ZM30.2191 14.4847C30.2194 14.1975 30.379 13.9654 30.5758 13.9659C30.7725 13.9664 30.9317 14.1994 30.9313 14.4865L30.924 21.2426C30.9237 21.5298 30.7641 21.7619 30.5673 21.7614C30.3706 21.7609 30.2115 21.5279 30.2118 21.2408L30.2191 14.4847ZM28.4386 14.48C28.4389 14.1929 28.5985 13.9608 28.7952 13.9613C28.992 13.9618 29.1511 14.1948 29.1508 14.4819L29.1435 21.238C29.1431 21.5251 28.9835 21.7573 28.7868 21.7568C28.59 21.7562 28.4309 21.5233 28.4312 21.2361L28.4386 14.48Z"
                fill="white"
              />
            </g>
            <defs>
              <clipPath id="clip0_14_1541">
                <rect width="60" height="31" rx="10" fill="white" />
              </clipPath>
            </defs>
          </svg>